# Blender v2.74 (sub 0) OBJ File: 'wiimote.blend'
# www.blender.org
mtllib wiimoteWithMarkers.mtl
o Wiimote_Cube.001
v -0.020270 1.789607 -0.204806
v -0.020270 1.789607 -0.082511
v -0.014904 1.798450 -0.088494
v -0.014904 1.798450 -0.201783
v -0.020270 0.999981 -0.082511
v -0.020270 0.999981 -0.234612
v -0.017075 0.992305 -0.232246
v -0.017075 0.992305 -0.084878
v 0.181923 0.999981 -0.082511
v 0.181923 1.423439 -0.082511
v 0.181923 1.501225 -0.082511
v -0.020270 1.501225 -0.082511
v -0.020270 1.423439 -0.082511
v -0.020270 1.520940 -0.241363
v 0.181923 1.520940 -0.241363
v 0.181923 0.999981 -0.234612
v 0.181923 1.789607 -0.082511
v 0.181923 1.659362 -0.082511
v 0.181923 1.559729 -0.082511
v 0.181923 1.541000 -0.237969
v 0.181923 1.626327 -0.200745
v 0.181923 1.741750 -0.205427
v 0.181923 1.789607 -0.204806
v -0.020270 1.626327 -0.200745
v -0.020270 1.741750 -0.205427
v -0.020270 1.541000 -0.237969
v -0.020270 1.559729 -0.082511
v -0.020270 1.659362 -0.082511
v 0.176556 1.798450 -0.088494
v 0.176556 1.798450 -0.201783
v 0.178728 0.992305 -0.232246
v 0.178728 0.992305 -0.084878
v 0.119938 1.550021 -0.233146
v 0.041714 1.550021 -0.233146
v 0.041714 1.543115 -0.236660
v 0.119938 1.543115 -0.236660
v 0.078657 1.578783 -0.082459
v 0.052487 1.567467 -0.082459
v 0.041647 1.540150 -0.082459
v 0.052487 1.512832 -0.082459
v 0.078657 1.501517 -0.082459
v 0.104827 1.512832 -0.082459
v 0.115667 1.540150 -0.082459
v 0.104827 1.567467 -0.082459
v 0.093093 1.653983 -0.082218
v 0.093093 1.677443 -0.082218
v 0.124061 1.677443 -0.082218
v 0.124061 1.653983 -0.082218
v 0.034836 1.653983 -0.082218
v 0.034836 1.677443 -0.082218
v 0.065804 1.677443 -0.082218
v 0.065804 1.653983 -0.082218
v 0.065804 1.620385 -0.082218
v 0.093093 1.620385 -0.082218
v 0.065804 1.711041 -0.082218
v 0.093093 1.711041 -0.082218
v 0.008017 1.775175 -0.082459
v 0.022097 1.769088 -0.082459
v 0.027929 1.754390 -0.082459
v 0.022097 1.739693 -0.082459
v 0.008017 1.733605 -0.082459
v -0.006062 1.739693 -0.082459
v -0.011894 1.754390 -0.082459
v -0.006062 1.769088 -0.082459
v 0.078657 1.399202 -0.082459
v 0.094073 1.392536 -0.082459
v 0.100459 1.376444 -0.082459
v 0.094073 1.360351 -0.082459
v 0.078657 1.353685 -0.082459
v 0.063240 1.360351 -0.082459
v 0.056855 1.376444 -0.082459
v 0.063240 1.392536 -0.082459
v 0.132355 1.399202 -0.082459
v 0.147771 1.392536 -0.082459
v 0.154157 1.376444 -0.082459
v 0.147771 1.360351 -0.082459
v 0.132355 1.353685 -0.082459
v 0.116938 1.360351 -0.082459
v 0.110552 1.376444 -0.082459
v 0.116938 1.392536 -0.082459
v 0.024758 1.399202 -0.082459
v 0.040175 1.392536 -0.082459
v 0.046560 1.376444 -0.082459
v 0.040175 1.360351 -0.082459
v 0.024758 1.353685 -0.082459
v 0.009342 1.360351 -0.082459
v 0.002956 1.376444 -0.082459
v 0.009342 1.392536 -0.082459
v 0.078657 1.188252 -0.082459
v 0.094073 1.181586 -0.082459
v 0.100459 1.165494 -0.082460
v 0.094073 1.149401 -0.082460
v 0.078657 1.142736 -0.082460
v 0.063240 1.149401 -0.082460
v 0.056855 1.165494 -0.082460
v 0.063240 1.181586 -0.082459
v 0.078657 1.114145 -0.082460
v 0.094073 1.107479 -0.082460
v 0.100459 1.091387 -0.082460
v 0.094073 1.075294 -0.082460
v 0.078657 1.068628 -0.082460
v 0.063240 1.075294 -0.082460
v 0.056855 1.091387 -0.082460
v 0.063240 1.107479 -0.082460
v 0.041714 1.584423 -0.218191
v 0.041714 1.618825 -0.203236
v 0.041714 1.618696 -0.207251
v 0.041714 1.603868 -0.218457
v 0.119938 1.567222 -0.225669
v 0.119938 1.573890 -0.240035
v 0.119938 1.586869 -0.230271
v 0.119938 1.603868 -0.218457
v 0.119938 1.618696 -0.207251
v 0.041714 1.573890 -0.240035
v 0.041714 1.561851 -0.247372
v 0.119938 1.618825 -0.203236
v 0.041714 1.586869 -0.230271
v 0.119938 1.584423 -0.218191
v 0.041714 1.567222 -0.225669
v 0.119938 1.561851 -0.247372
v -0.133774 1.770748 -0.014442
v -0.132220 1.770748 -0.014442
v 0.103035 1.798450 -0.166047
v 0.058617 2.031578 -0.166047
v 0.103035 2.031578 -0.166047
v 0.103035 2.031578 -0.124229
v 0.075221 1.981059 -0.124229
v 0.086431 1.981059 -0.124229
v 0.075221 2.007622 -0.124229
v 0.086431 2.007622 -0.124229
v 0.075221 1.981059 0.060903
v 0.086431 1.981059 0.060903
v 0.075221 2.007622 0.060903
v 0.086431 2.007622 0.060903
v 0.103035 2.009630 -0.124083
v 0.103035 2.009630 0.109045
v 0.058617 1.967812 -0.401708
v 0.058617 2.009630 -0.401708
v 0.103035 1.967812 -0.401708
v 0.103035 2.009630 -0.401708
v 0.058617 1.967812 -0.168580
v 0.058617 2.009630 -0.168580
v 0.103035 2.009630 -0.168580
v 0.103035 1.967812 -0.168580
v -0.174719 2.009630 -0.168646
v 0.058409 2.009630 -0.168646
v 0.103303 2.009630 -0.168646
v 0.336431 2.009630 -0.168646
v 0.050203 1.798514 -0.113548
v 0.050203 2.079124 -0.113548
v 0.050203 1.798514 -0.175180
v 0.050203 2.079124 -0.175180
v 0.111835 1.798514 -0.113548
v 0.111835 2.079124 -0.113548
v 0.111835 1.798514 -0.175180
v 0.111835 2.079124 -0.175180
v 0.050203 1.991860 -0.113448
v 0.050203 1.991860 0.167162
v 0.050203 2.053492 -0.113448
v 0.050203 2.053492 0.167162
v 0.111835 1.991860 -0.113448
v 0.111835 1.991860 0.167162
v 0.111835 2.053492 -0.113448
v 0.111835 2.053492 0.167162
v 0.050203 1.991860 -0.455576
v 0.050203 1.991860 -0.174966
v 0.050203 2.053492 -0.455576
v 0.050203 2.053492 -0.174966
v 0.111835 1.991860 -0.455576
v 0.111835 1.991860 -0.174966
v 0.111835 2.053492 -0.455576
v 0.111835 2.053492 -0.174966
v -0.230406 1.991860 -0.113475
v 0.050203 1.991860 -0.113475
v -0.230406 2.053492 -0.113475
v 0.050203 2.053492 -0.113475
v -0.230406 1.991860 -0.175107
v 0.050203 1.991860 -0.175107
v -0.230406 2.053492 -0.175107
v 0.050203 2.053492 -0.175107
v 0.111810 1.991860 -0.113475
v 0.392420 1.991860 -0.113475
v 0.111810 2.053492 -0.113475
v 0.392420 2.053492 -0.113475
v 0.111810 1.991860 -0.175107
v 0.392420 1.991860 -0.175107
v 0.111810 2.053492 -0.175107
v 0.392420 2.053492 -0.175107
vn 0.000000 -0.000000 1.000000
vn 0.000000 0.000000 -1.000000
vn -1.000000 -0.000000 0.000000
vn 1.000000 -0.000000 0.000000
vn 0.000000 0.602900 -0.797800
vn -0.000000 0.999500 -0.032400
vn 0.000000 0.570700 -0.821200
vn 0.000000 0.601200 -0.799100
vn 0.000000 -0.496400 -0.868100
vn 0.000000 0.520400 -0.853900
vn 0.000000 -1.000000 0.000000
vn 0.000000 1.000000 0.000000
vn -0.854900 0.518800 0.000000
vn -0.923200 -0.384300 -0.000000
vn 0.000000 -0.013000 -0.999900
vn 0.000000 -0.024900 -0.999700
vn 0.000000 0.323500 -0.946200
vn 0.854900 0.518800 0.000000
vn 0.000000 0.560400 0.828200
vn 0.000000 -0.295100 -0.955500
vn 0.923200 -0.384300 -0.000000
vn 0.000000 -0.294700 0.955600
vn 0.000000 0.166800 -0.986000
vn 0.000000 0.399900 -0.916600
vn 0.000000 -0.453400 0.891300
usemtl Material.000
s 1
f 37//1 38//1 39//1 40//1 41//1 42//1 43//1 44//1
f 45//2 46//2 47//2 48//2
f 49//2 50//2 51//2 52//2
f 52//2 51//2 46//2 45//2
f 53//2 52//2 45//2 54//2
f 51//2 55//2 56//2 46//2
f 57//2 58//2 59//2 60//2 61//2 62//2 63//2 64//2
f 65//2 66//2 67//2 68//2 69//2 70//2 71//2 72//2
f 73//2 74//2 75//2 76//2 77//2 78//2 79//2 80//2
f 81//2 82//2 83//2 84//2 85//2 86//2 87//2 88//2
f 89//2 90//2 91//2 92//2 93//2 94//2 95//2 96//2
f 97//2 98//2 99//2 100//2 101//2 102//2 103//2 104//2
f 105//3 106//3 107//3 108//3
f 109//4 33//4 110//4 111//4
f 112//5 108//5 107//5 113//5
f 34//3 114//3 115//3 35//3
f 106//6 116//6 113//6 107//6
f 111//7 117//7 108//7 112//7
f 116//4 118//4 112//4 113//4
f 119//3 105//3 108//3 117//3
f 34//3 119//3 117//3 114//3
f 110//8 114//8 117//8 111//8
f 118//4 109//4 111//4 112//4
f 36//9 35//9 115//9 120//9
f 110//4 33//4 36//4 120//4
f 114//10 110//10 120//10 115//10
usemtl Material.003
s off
f 150//3 152//3 151//3 149//3
f 152//2 156//2 155//2 151//2
f 156//4 154//4 153//4 155//4
f 154//1 150//1 149//1 153//1
f 149//11 151//11 155//11 153//11
f 158//3 160//3 159//3 157//3
f 160//12 164//12 163//12 159//12
f 164//4 162//4 161//4 163//4
f 162//11 158//11 157//11 161//11
f 157//2 159//2 163//2 161//2
f 162//1 164//1 160//1 158//1
f 166//3 168//3 167//3 165//3
f 168//12 172//12 171//12 167//12
f 172//4 170//4 169//4 171//4
f 170//11 166//11 165//11 169//11
f 165//2 167//2 171//2 169//2
f 170//1 172//1 168//1 166//1
f 174//1 176//1 175//1 173//1
f 176//12 180//12 179//12 175//12
f 180//2 178//2 177//2 179//2
f 178//11 174//11 173//11 177//11
f 173//3 175//3 179//3 177//3
f 178//4 180//4 176//4 174//4
f 182//1 184//1 183//1 181//1
f 184//12 188//12 187//12 183//12
f 188//2 186//2 185//2 187//2
f 186//11 182//11 181//11 185//11
f 181//3 183//3 187//3 185//3
f 186//4 188//4 184//4 182//4
f 150//12 154//12 156//12 152//12
s 1
f 1//13 2//13 3//13 4//13
f 5//14 6//14 7//14 8//14
f 9//1 10//1 11//1 12//1 13//1 5//1
f 14//15 15//15 16//15 6//15
f 17//4 18//4 19//4 11//4 20//4 21//4 22//4 23//4
f 1//16 23//16 22//16 21//16 24//16 25//16
f 2//3 1//3 25//3 24//3 26//3 12//3 27//3 28//3
f 29//12 30//12 4//12 3//12
f 23//17 1//17 4//17 30//17
f 17//18 23//18 30//18 29//18
f 2//19 17//19 29//19 3//19
f 2//1 28//1 27//1 12//1 11//1 19//1 18//1 17//1
f 8//11 7//11 31//11 32//11
f 6//20 16//20 31//20 7//20
f 16//21 9//21 32//21 31//21
f 9//22 5//22 8//22 32//22
f 26//23 20//23 15//23 14//23
f 5//3 13//3 12//3 26//3 14//3 6//3
f 16//4 15//4 20//4 11//4 10//4 9//4
f 20//24 26//24 24//24 21//24
f 33//25 34//25 35//25 36//25
l 121 122
